<svg xmlns="http://www.w3.org/2000/svg" enable-background="new 0 0 3000 3000" viewBox="0 0 3000 3000" id="acorns-and-cones">
  <switch>
    <g>
      <g>
        <g>
          <g opacity=".1">
            <ellipse cx="1500" cy="2306.228" rx="543.767" ry="938.779" transform="rotate(-89.84 1499.935 2306.207)"></ellipse>
          </g>
          <g>
            <path fill="#4b3409" d="m1419.301 1095.412-5.092-8.162c-1.881-2.967-3.846-5.981-5.868-8.969-4.005-5.99-8.226-11.939-12.556-17.795-8.675-11.717-17.843-23.09-27.422-33.98-19.188-21.746-39.895-41.757-61.975-58.859-10.996-8.607-22.291-16.559-33.893-23.587-11.535-7.147-23.344-13.465-35.349-18.773-23.888-10.988-48.531-17.792-72.994-21.436l-23.325-3.476c-41.718-6.216-70.498-45.075-64.281-86.793 6.216-41.718 45.074-70.498 86.792-64.281 12.847 1.914 24.735 7.143 34.484 14.378 16.891 12.631 33.285 22.931 48.658 34.195 15.428 11.024 30.313 21.635 44.568 32.549 28.678 21.42 55.927 43.036 79.755 67.854 12.281 11.967 23.846 24.524 34.81 37.47 11.35 12.618 21.84 25.893 32.237 39.207 10.516 13.244 20.307 27 30.286 40.782l14.636 21.111 7.289 10.877 3.691 5.614c1.262 2.055 2.41 3.611 4.014 6.399 11.773 20.46 4.731 46.591-15.729 58.364-19.995 11.505-45.404 5.042-57.539-14.353L1419.301 1095.412zM1415.464 883.298c-.193-2.782-.487-6.835-.846-10.37-.347-3.653-.75-7.355-1.218-11.056-.894-7.401-2.006-14.831-3.262-22.231-2.522-14.805-5.656-29.517-9.398-44.011-7.525-28.969-17.271-57.182-29.744-83.626-6.172-13.249-12.957-26.096-20.503-38.31-7.435-12.284-15.543-24.009-24.38-34.957-17.388-22.165-37.733-41.096-59.741-56.988l-8.761-6.327c-21.555-15.564-26.411-45.654-10.848-67.208 15.564-21.554 45.654-26.411 67.208-10.847 4.298 3.104 8.043 6.961 10.984 11.037 21.931 30.686 42.041 59.365 59.172 89.277 17.526 29.511 32.602 59.788 44.017 91.219 6.012 15.581 11.199 31.413 15.637 47.391 4.771 15.888 8.621 31.992 12.175 48.142 3.644 16.141 6.487 32.431 9.208 48.814 1.234 8.211 2.487 16.438 3.572 24.76l1.548 12.573c.517 4.355.98 8.21 1.304 13.364.971 15.418-10.741 28.703-26.159 29.674-15.354.967-28.593-10.644-29.661-25.967L1415.464 883.298zM1450.188 1335.106l-8.734-8.161c-3.263-3.004-6.644-6.043-10.105-9.027-6.879-5.996-14.005-11.879-21.284-17.573-14.541-11.412-29.625-22.178-45.083-32.128-30.954-19.832-63.27-36.738-96.281-49.327-32.963-12.69-66.499-21.374-99.667-25.15-8.258-1.257-16.574-1.413-24.766-2.164-8.249-.024-16.405-.69-24.559-.201-16.275.028-32.357 2.155-48.195 4.322l-31.137 4.261c-54.867 7.508-105.43-30.884-112.939-85.75-7.508-54.866 30.884-105.431 85.751-112.938 16.046-2.196 32.163-.292 46.504 4.629 50.648 17.598 96.248 30.963 139.855 47.183 21.851 7.661 43.054 15.916 63.885 24.545 20.796 8.785 40.797 18.781 60.394 29.212 19.719 10.209 38.578 21.725 56.916 33.807 18.678 11.569 36.459 24.36 54.086 37.304 17.753 12.812 34.717 26.601 51.888 40.429 8.431 7.09 16.952 14.155 25.463 21.474l12.788 11.223 6.517 5.851c2.284 2.191 4.219 3.738 7.246 6.844 21.708 22.276 21.247 57.932-1.028 79.64-21.61 21.059-55.811 21.255-77.655.912L1450.188 1335.106z"></path>
            <path fill="#4b3409" d="M1424.824,1246.334l4.395-5.858l3.966-5.093c2.641-3.34,5.279-6.582,7.964-9.76
						c5.35-6.386,10.82-12.564,16.441-18.596c11.227-12.076,22.992-23.627,35.35-34.656c24.747-21.989,51.717-42.136,81.348-59.232
						c29.554-17.141,61.715-31.354,95.984-41.187c34.176-10.1,70.542-15.035,107.123-15.412l36.452-0.375
						c42.84-0.441,77.927,33.93,78.368,76.77c0.442,42.84-33.93,77.926-76.77,78.368c-17.477,0.18-33.68-5.452-46.751-15.071
						c-2.81-2.066-5.701-3.993-8.654-5.65l-4.469-2.58c-1.505-0.777-3.023-1.336-4.552-2.02c-3.056-1.244-6.173-2.79-9.315-3.776
						c-3.142-0.992-6.319-1.838-9.539-2.777c-6.448-1.967-12.948-2.557-19.57-3.536c-6.557-0.338-13.252-0.91-19.865-0.416
						c-13.308,0.432-26.504,3.045-39.43,6.712c-12.972,3.549-25.875,8.007-38.439,13.422c-12.476,5.599-24.726,11.965-36.603,19.076
						c-11.632,7.484-23.15,15.297-33.911,24.123c-10.67,8.923-21.05,18.249-30.342,28.546c-4.773,5.005-9.217,10.313-13.365,15.725
						c-2.108,2.676-4.166,5.369-5.989,8.144l-2.703,4.081c-0.783,1.214-1.807,2.918-1.958,3.532
						c-5.742,23.363-29.337,37.647-52.7,31.904c-23.363-5.742-37.647-29.337-31.905-52.7c1.429-5.811,3.961-11.059,7.319-15.578
						L1424.824,1246.334z"></path>
            <path fill="#58431b" d="M1638.574 2271.623c-1.461 0-2.474-.011-3.017-.022-47.126-.703-84.754-39.477-84.052-86.598.703-47.049 39.355-84.633 86.349-84.057 2.651-.006 260.662.337 396.966-169.133 29.53-36.721 83.243-42.549 119.98-13.008 36.72 29.536 42.549 83.255 13.008 119.98C1985.967 2264.854 1674.819 2271.623 1638.574 2271.623zM1443.384 928.451l.393-15.103c.104-5.517.138-11.167.075-16.833-.063-11.317-.445-22.766-1.05-34.19-1.225-22.864-3.392-45.704-6.519-68.268-6.319-45.108-16.133-89.256-30.262-130.783-6.957-20.798-14.876-40.996-23.995-60.25-4.288-9.78-9.414-19.01-14.176-28.373-5.275-9.043-10.176-18.256-15.896-26.83-21.793-35.08-48.196-65.328-77.099-91.282l-29.541-26.528c-49.572-44.515-53.67-120.786-9.155-170.357 44.515-49.571 120.786-53.67 170.357-9.155 15.98 14.35 27.382 32.506 33.806 51.498 5.304 15.859 11.901 30.022 17.271 44.709 2.888 7.184 5.703 14.323 8.683 21.239 2.63 7.155 5.389 14.128 8.155 21.024l4.132 10.293 3.824 10.36c2.526 6.881 5.421 13.501 7.786 20.344 4.861 13.594 10.057 26.828 14.54 40.202 19.199 52.854 35.454 104.996 45.715 157.978 10.877 52.798 17.209 105.624 21.547 158.509 2.316 26.459 3.237 52.962 4.385 79.662l.904 40.335.136 20.564-.023 10.552c-.125 3.787.032 6.819-.279 11.86-2.284 37.004-34.133 65.151-71.138 62.868-36.162-2.232-63.865-32.699-62.976-68.619L1443.384 928.451z"></path>
            <path fill="#58431b" d="M1466.297,1071.301l-1.912-9.74l-1.564-8.715c-0.998-5.767-1.901-11.441-2.71-17.114
						c-1.672-11.35-3.017-22.633-4.141-33.947c-2.234-22.614-3.536-45.299-3.866-68.12c-0.584-45.617,2.377-91.826,10.518-138.211
						c3.983-23.187,9.17-46.424,15.97-69.509c3.14-11.596,7.217-23.032,11.028-34.565c4.315-11.402,8.413-22.919,13.468-34.179
						c19.13-45.393,45.586-89.041,77.875-128.839l30.625-37.745c36.456-44.931,102.434-51.803,147.365-15.347
						s51.803,102.433,15.347,147.365c-14.564,17.951-33.853,29.823-54.618,35.288c-4.638,1.224-9.204,2.654-13.544,4.385
						l-6.647,2.557c-2.077,1.004-4.052,2.115-6.105,3.183c-4.016,2.205-8.347,4.256-12.23,6.733
						c-3.838,2.528-7.568,5.207-11.292,7.952c-7.562,5.405-14.099,11.841-20.815,18.281l-9.305,10.318
						c-3.161,3.435-5.705,7.296-8.592,10.972c-5.634,7.419-10.532,15.415-15.231,23.519c-4.458,8.263-8.77,16.627-12.498,25.34
						c-7.949,17.192-14.372,35.262-19.689,53.756c-5.093,18.544-9.495,37.442-12.605,56.666c-2.56,19.284-4.74,38.726-5.27,58.288
						c-0.35,19.555-0.092,39.169,2.076,58.568c0.451,4.854,1.009,9.675,1.624,14.492l2.395,14.303
						c0.829,4.732,1.708,9.439,2.887,13.987l1.71,6.733c0.533,2.011,1.326,4.652,1.842,5.593
						c15.433,28.118,5.149,63.423-22.969,78.855c-28.118,15.433-63.423,5.149-78.855-22.969c-2.911-5.303-4.907-10.862-6.041-16.496
						L1466.297,1071.301z"></path>
            <path fill="#58431b" d="m1462.095 1100.219-3.794-12.084c-1.418-4.404-2.927-8.894-4.517-13.37-3.126-8.958-6.541-17.934-10.127-26.829-7.187-17.799-15.114-35.324-23.728-52.367-17.274-34.055-37.058-66.399-59.552-95.492-11.171-14.602-22.942-28.467-35.409-41.258-6.059-6.591-12.633-12.517-18.955-18.648-6.642-5.738-13.033-11.712-19.9-16.956-26.818-21.895-55.981-38.705-85.958-51.432l-26.597-11.292c-50.849-21.587-74.572-80.309-52.984-131.159 21.587-50.85 80.309-74.572 131.159-52.984 14.948 6.346 27.837 16.273 37.634 27.893 35.295 42.193 67.624 78.459 96.782 115.863 29.613 36.684 56.615 73.658 79.245 112.829 11.7 19.309 22.293 39.134 31.993 59.256 10.3 19.832 19.285 40.216 28.14 60.621 9.029 20.354 16.965 41.121 25.133 61.984l11.682 31.742 5.698 16.271 2.851 8.374c.93 3.037 1.879 5.399 3.003 9.481 8.249 29.967-9.358 60.948-39.325 69.196-29.285 8.06-59.537-8.57-68.597-37.298L1462.095 1100.219zM1426.8 1250.309l-8.292-9.573c-3.054-3.475-6.226-6.993-9.467-10.465-6.435-6.972-13.142-13.845-19.974-20.576-13.681-13.465-27.932-26.382-42.621-38.586-29.407-24.359-60.436-46.148-92.655-63.876-16.063-8.945-32.382-16.976-48.911-23.743-8.183-3.632-16.573-6.45-24.813-9.556-8.378-2.618-16.619-5.553-25.007-7.628-33.32-9.404-66.764-13.209-99.329-12.945l-28.894.235c-55.24.449-100.386-43.968-100.835-99.208-.45-55.241 43.968-100.386 99.208-100.835 16.239-.132 32.015 3.841 45.63 10.599 49.178 24.646 93.275 45.037 134.917 67.735 41.773 21.856 81.266 45.018 117.623 71.936 18.422 13.053 36.034 27.019 52.944 41.613 17.346 14.089 33.705 29.209 49.954 44.4 16.389 15.074 31.939 30.963 47.74 46.847l23.356 24.463 11.706 12.656 5.95 6.546c2.063 2.415 3.873 4.204 6.53 7.502 19.5 24.203 15.688 59.632-8.515 79.133-23.652 19.057-58.025 15.849-77.777-6.894L1426.8 1250.309z"></path>
            <path fill="#58431b" d="M1445.602,1217.542l5.189-8.461l4.75-7.472c3.17-4.92,6.349-9.706,9.594-14.429
						c6.456-9.483,13.107-18.697,19.94-27.783c13.67-18.153,28.073-35.727,43.284-52.743c30.46-33.963,63.929-65.961,101.329-94.579
						c18.632-14.364,38.184-27.951,58.819-40.333c10.163-6.406,20.907-12.061,31.521-17.968c10.897-5.468,21.71-11.167,33.055-16.03
						c44.815-20.448,93.839-34.652,144.548-42.071l48.094-7.037c57.251-8.376,110.453,31.245,118.83,88.496
						c8.376,57.252-31.245,110.453-88.496,118.83c-22.874,3.347-45.105-0.979-64.086-11.019c-4.241-2.24-8.57-4.278-12.935-5.945
						l-6.623-2.619c-2.208-0.668-4.413-1.188-6.647-1.792c-4.448-1.098-9.025-2.521-13.558-3.328
						c-4.536-0.739-9.095-1.293-13.694-1.796c-9.224-1.143-18.393-0.834-27.695-0.643l-13.834,1.292
						c-4.651,0.387-9.139,1.506-13.752,2.255c-9.17,1.644-18.188,4.212-27.134,6.992c-8.876,3.062-17.713,6.296-26.355,10.183
						c-17.491,7.267-34.454,16.215-50.889,26.224c-16.305,10.197-32.341,21.122-47.647,33.161
						c-14.942,12.456-29.711,25.287-43.348,39.322c-13.499,14.152-26.591,28.76-38.131,44.502c-2.956,3.878-5.81,7.802-8.619,11.763
						l-7.923,12.147c-2.594,4.043-5.135,8.102-7.347,12.247l-3.301,6.112c-0.97,1.841-2.174,4.322-2.432,5.364
						c-7.685,31.14-39.159,50.155-70.3,42.471c-31.14-7.685-50.155-39.159-42.471-70.3c1.45-5.873,3.745-11.315,6.725-16.228
						L1445.602,1217.542z"></path>
            <path fill="#58431b" d="M1508.528,1323.601l7.405-6.609l6.701-5.788c4.452-3.799,8.874-7.467,13.343-11.056
						c8.913-7.223,17.934-14.132,27.095-20.866c18.318-13.448,37.171-26.132,56.636-38.048
						c38.949-23.755,80.213-44.761,124.269-61.4c21.979-8.392,44.615-15.774,67.942-21.69c11.577-3.209,23.494-5.531,35.359-8.131
						c12.01-2.099,24.007-4.444,36.271-5.834c48.804-6.68,99.841-6.167,150.539,1.328l48.083,7.109
						c57.239,8.462,96.781,61.723,88.318,118.961c-8.462,57.239-61.723,96.78-118.961,88.318
						c-22.869-3.381-42.914-13.924-58.2-29.004c-3.416-3.366-6.974-6.565-10.675-9.417l-5.588-4.415
						c-1.922-1.275-3.884-2.408-5.849-3.63c-3.944-2.332-7.917-5.012-12.026-7.091c-4.131-2.013-8.337-3.857-12.597-5.662
						c-8.504-3.751-17.374-6.094-26.337-8.59l-13.62-2.746c-4.567-0.968-9.186-1.189-13.819-1.8
						c-9.255-1.066-18.631-1.204-27.998-1.116c-9.381,0.377-18.776,0.93-28.171,2.164c-18.843,1.923-37.664,5.609-56.285,10.461
						c-18.55,5.07-37.052,10.916-55.177,18.038c-17.896,7.627-35.734,15.662-52.834,25.177
						c-17.003,9.666-33.746,19.887-49.33,31.639c-3.947,2.862-7.81,5.799-11.641,8.784l-11.084,9.352
						c-3.648,3.125-7.25,6.28-10.562,9.613l-4.922,4.903c-1.459,1.483-3.327,3.513-3.873,4.436
						c-16.325,27.609-51.94,36.757-79.55,20.432c-27.609-16.325-36.757-51.941-20.432-79.551c3.079-5.207,6.845-9.758,11.113-13.605
						L1508.528,1323.601z"></path>
            <path fill="#58431b" d="m1450.495 1388.664-10.725-6.737c-3.935-2.433-7.996-4.872-12.109-7.247-8.19-4.791-16.61-9.408-25.109-13.852-17.015-8.887-34.415-17.084-52.025-24.47-35.235-14.718-71.271-26.505-107.261-34.06-17.974-3.869-35.926-6.789-53.71-8.438-8.887-1.087-17.734-1.333-26.522-1.9-8.777-.059-17.516-.462-26.145.001-34.614.728-67.713 6.847-98.784 16.602l-27.568 8.656c-52.705 16.549-108.847-12.762-125.395-65.468-16.549-52.705 12.762-108.847 65.468-125.396 15.494-4.865 31.741-5.668 46.736-3.177 54.229 9.224 102.358 15.86 148.81 25.42 46.333 8.716 90.865 19.346 133.495 34.484 21.429 7.109 42.35 15.329 62.783 24.353 20.702 8.415 40.762 18.103 60.736 27.891 20.074 9.636 39.583 20.296 59.331 30.878l29.479 16.583 14.89 8.689 7.601 4.525c2.678 1.709 4.932 2.891 8.435 5.269 25.714 17.46 32.406 52.46 14.946 78.174-17.062 25.129-50.875 32.091-76.403 16.101L1450.495 1388.664zM1599.572 1498.92c.261-2.844.299-5.759.108-8.651-.205-2.99-.574-5.427-1.28-9.19-1.447-7.031-4.198-13.617-7.692-19.644-7.766-12.5-15.812-18.266-21.584-21.846l-3.609-2.056c-1.028-.548-2.083-1.051-3.154-1.507l-2.344-1c-.604-.257-1.218-.492-1.839-.705-1.526-.469-1.89-.658-2.518-.873-.542-.205-1.462-.377-1.449-.476-1.883-.754 1.926-.816 5.941-1.462 8.582-1.133 20.224-3.119 31.881-5.347 23.693-4.54 49.022-10.002 74.564-15.353 51.243-10.8 103.997-21.349 157.723-29.86 53.755-8.552 108.601-15.161 164.632-18.829 56.033-3.591 113.301-4.054 171.722.267l56.595 4.186c72.148 5.336 126.311 68.149 120.974 140.298-5.336 72.148-68.149 126.31-140.297 120.974-27.273-2.017-51.923-12.221-71.812-28.064-20.63-16.387-43.197-27.868-66.557-36.816-23.363-9.005-47.588-15.209-72.135-19.285-24.569-4.041-49.461-5.791-74.464-6.332-12.507-.383-25.056-.63-37.621-.402-12.562.186-25.177.241-37.783.91-50.5 2.072-101.1 7.512-152.218 15.708-25.627 4.263-51.322 8.43-78.505 13.391l-21.105 3.282c-7.325 1.164-14.885 2.25-23.398 3.015-4.281.374-8.781.674-13.923.746-2.598.008-5.142.073-8.278-.04-1.549-.059-2.869-.059-4.611-.194l-5.295-.49c-1.584-.122-4.014-.543-6.114-.91-2.179-.396-4.125-.717-7.129-1.554l-4.11-1.172c-1.355-.411-2.608-.78-4.579-1.564-1.789-.694-3.566-1.437-5.323-2.225-1.865-.867-3.172-1.391-5.739-2.87-2.292-1.302-4.546-2.705-6.734-4.193l-3.231-2.294c-1.233-.948-2.68-2.17-3.969-3.312-2.635-2.343-5.16-4.85-7.509-7.47-1.102-1.19-2.439-2.862-3.708-4.591-1.258-1.705-2.461-3.468-3.597-5.274-4.601-7.138-7.865-15.167-9.941-23.655-1.112-4.473-1.489-7.714-1.848-11.489-.319-3.684-.41-7.404-.277-11.064 2.564-39.527 36.684-69.491 76.21-66.928C1572.17 1425.273 1602.135 1459.393 1599.572 1498.92z"></path>
            <path fill="#311b00" d="M1545.168,1467.877c0.194,3.256,0.194,6.574-0.008,9.872c-0.239,3.38-0.485,6.298-1.408,10.313
						c-1.702,7.629-4.463,14.907-8.477,21.423c-8.287,13.661-17.92,20.575-25.535,25.318c-2.314,1.423-3.502,1.975-5.194,2.843
						c-1.596,0.796-3.214,1.553-4.848,2.268c-1.799,0.799-2.951,1.214-4.197,1.669l-3.79,1.314
						c-2.775,0.931-4.594,1.382-6.633,1.906c-1.966,0.495-4.247,1.046-5.752,1.313c-13.699,2.599-22.601,2.894-31.258,3.293
						c-16.858,0.54-30.953,0.032-44.976-0.512c-27.709-1.213-53.814-3.037-79.765-4.654c-51.737-3.312-102.295-5.999-152.369-6.684
						c-50.027-0.708-99.444,0.438-147.836,4.433c-48.365,3.981-95.682,10.719-140.985,20.877l-34.435,7.722
						c-59.913,13.434-119.373-24.244-132.807-84.157c-13.435-59.913,24.244-119.373,84.157-132.807
						c17.876-4.008,36.203-3.313,52.788,1.012c7.554,2.001,15.025,3.656,22.376,5.138c7.378,1.558,14.68,3.078,21.898,4.271
						c14.477,2.747,28.725,5.262,42.79,7.412c28.151,4.422,55.662,8.17,82.892,11.276c27.214,3.192,54.153,5.626,80.942,8.225
						c26.775,2.84,53.388,5.686,79.844,8.966l78.997,9.795c26.25,2.845,52.3,6.5,78.201,9.302
						c25.876,2.572,51.66,5.531,76.309,6.375c6.109,0.238,12.13,0.514,17.906,0.49c5.732-0.115,11.276-0.347,15.999-0.812
						c4.534-0.397,8.937-1.298,8.306-2.031c0.126-0.073-0.531-0.104-0.882-0.098c-0.425,0.013-0.632,0.01-1.831,0.224
						c-0.479,0.092-0.956,0.203-1.427,0.333l-1.876,0.581c-0.875,0.294-1.741,0.63-2.588,1.006
						c-0.953,0.427-1.365,0.645-3.005,1.477c-4.852,2.684-11.726,7.229-18.614,17.646c-3.087,5.031-5.603,10.573-6.989,16.557
						c-0.673,3.208-1.079,5.27-1.336,7.825c-0.246,2.47-0.291,4.972-0.141,7.422c-2.248-34.671,24.036-64.6,58.707-66.848
						C1512.991,1406.922,1542.92,1433.206,1545.168,1467.877z"></path>
            <path fill="#452d01" d="M1379.244,1351.964c-0.044-0.069-0.279-0.249-0.17-0.221l0.323,0.08l0.729,0.209l1.8,0.599
						l4.032,1.365l8.615,2.792c5.873,1.842,11.929,3.584,18.033,5.164c12.205,3.183,24.588,5.823,36.91,7.816
						c24.656,3.936,49.077,5.55,72.148,4.218c23.082-1.247,44.806-5.151,64.328-11.806c19.639-6.353,36.886-15.755,52.442-26.447
						l42.739-29.376c65.068-44.723,154.073-28.23,198.795,36.839c44.723,65.068,28.23,154.073-36.838,198.796
						c-33.193,22.814-73.068,29.606-109.663,22.238c-24.525-5.023-46.023-7.139-66.717-9.82c-5.17-0.683-10.162-0.936-15.216-1.744
						l-14.807-1.543l-14.468-1.571c-4.766-0.39-9.467-0.766-14.158-1.379l-54.517-4.976c-17.78-2.02-35.134-4.756-52.215-8.043
						c-34.175-6.514-66.967-15.251-99.483-24.775c-16.225-4.895-32.434-9.842-48.766-15.209l-24.889-8.057
						c-4.205-1.413-8.392-2.954-12.848-4.355l-6.726-2.328l-3.58-1.299l-1.974-0.736c-0.641-0.239-1.316-0.495-2.545-1.113
						c-34.605-21.728-45.044-67.395-23.316-102C1298.972,1340.674,1344.638,1330.236,1379.244,1351.964z"></path>
            <path fill="#58431b" d="M1456.433,1704.105c-0.224-3.655-0.226-7.381,0.002-11.085
						c0.267-3.796,0.555-7.065,1.584-11.589c1.908-8.589,5.029-16.774,9.535-24.111c1.113-1.855,2.295-3.671,3.535-5.43
						c1.252-1.784,2.575-3.512,3.66-4.754c2.318-2.727,4.823-5.347,7.461-7.797c1.287-1.195,2.739-2.475,3.974-3.476l3.227-2.444
						c2.189-1.59,4.452-3.097,6.763-4.503c2.592-1.589,3.892-2.199,5.77-3.165c1.767-0.883,3.561-1.723,5.371-2.515
						c1.999-0.885,3.258-1.342,4.625-1.844l4.159-1.446c3.056-1.023,5.018-1.515,7.23-2.087c2.131-0.541,4.621-1.14,6.224-1.431
						c14.719-2.818,23.954-3.136,32.915-3.604c17.399-0.649,31.655-0.238,45.833,0.196c27.972,0.996,54.128,2.581,80.105,3.953
						c51.769,2.822,102.183,4.994,152.018,5.167c49.783,0.193,98.846-1.459,146.738-5.956
						c47.862-4.477,94.528-11.686,138.973-22.227l41.042-9.733c68.719-16.297,137.637,26.199,153.934,94.917
						c16.297,68.718-26.199,137.636-94.918,153.933c-22.239,5.274-45.027,4.214-65.517-1.723
						c-30.804-9.04-59.93-14.936-88.406-20.332c-28.465-5.3-56.19-9.701-83.597-13.276c-27.387-3.666-54.46-6.374-81.366-9.178
						c-26.891-3.083-53.599-6.088-80.135-9.519c-53.061-6.612-105.63-13.893-157.525-19.319
						c-25.891-2.461-51.681-5.341-76.164-5.916c-6.061-0.177-12.019-0.405-17.697-0.308c-5.627,0.198-11.04,0.516-15.515,1.062
						c-2.212,0.271-4.21,0.603-5.555,0.98c-0.646,0.173-1.346,0.38-1.438,0.635c-0.065,0.115-0.37,0.211-0.233,0.312
						c0.158,0.1,0.318,0.18,0.479,0.239c-0.031,0.069,0.828,0.075,1.34,0.045c0.594-0.039,0.943-0.057,2.417-0.34
						c0.601-0.122,1.198-0.266,1.79-0.431l2.298-0.721c1.05-0.358,2.088-0.765,3.105-1.217c1.138-0.511,1.662-0.779,3.577-1.762
						c5.722-3.18,13.751-8.499,21.714-20.576c3.59-5.828,6.484-12.258,8.097-19.189c0.79-3.711,1.248-6.12,1.545-9.089
						c0.282-2.874,0.336-5.782,0.168-8.632c2.563,39.526-27.402,73.647-66.929,76.21
						C1493.117,1773.597,1458.997,1743.632,1456.433,1704.105z"></path>
            <path fill="#58431b" d="M1553.96,1685.012c0.224,3.655,0.227,7.381-0.002,11.084c-0.267,3.797-0.555,7.065-1.584,11.589
						c-1.908,8.589-5.029,16.774-9.535,24.11c-1.113,1.856-2.295,3.671-3.535,5.43c-1.252,1.784-2.575,3.513-3.66,4.754
						c-2.318,2.727-4.823,5.348-7.461,7.797c-1.287,1.195-2.739,2.475-3.974,3.476l-3.227,2.444
						c-2.189,1.59-4.452,3.097-6.762,4.503c-2.593,1.588-3.893,2.199-5.771,3.164c-1.767,0.884-3.561,1.723-5.371,2.515
						c-2,0.884-3.258,1.342-4.625,1.844l-4.158,1.446c-3.057,1.022-5.019,1.515-7.231,2.087c-2.13,0.541-4.621,1.14-6.223,1.431
						c-14.72,2.818-23.955,3.136-32.915,3.604c-17.4,0.65-31.656,0.238-45.833-0.196c-27.972-0.996-54.128-2.581-80.105-3.953
						c-51.769-2.822-102.183-4.994-152.018-5.167c-49.783-0.194-98.846,1.459-146.737,5.955
						c-47.863,4.477-94.528,11.686-138.973,22.227l-41.043,9.733c-68.717,16.297-137.636-26.199-153.933-94.917
						c-16.297-68.718,26.199-137.636,94.917-153.933c22.239-5.274,45.027-4.214,65.517,1.723
						c30.804,9.04,59.93,14.936,88.406,20.332c28.465,5.3,56.19,9.701,83.597,13.276c27.387,3.666,54.461,6.374,81.366,9.178
						c26.89,3.083,53.599,6.088,80.135,9.519c53.061,6.612,105.63,13.893,157.525,19.319c25.892,2.461,51.682,5.341,76.164,5.916
						c6.061,0.177,12.019,0.404,17.697,0.308c5.627-0.198,11.04-0.516,15.515-1.062c2.212-0.272,4.21-0.603,5.555-0.98
						c0.646-0.173,1.346-0.38,1.438-0.635c0.065-0.115,0.37-0.211,0.233-0.312c-0.158-0.1-0.318-0.18-0.478-0.239
						c0.03-0.07-0.828-0.076-1.341-0.045c-0.594,0.039-0.943,0.057-2.416,0.34c-0.601,0.122-1.199,0.266-1.791,0.431l-2.297,0.721
						c-1.05,0.359-2.088,0.765-3.105,1.217c-1.138,0.511-1.662,0.779-3.577,1.761c-5.722,3.18-13.751,8.5-21.714,20.576
						c-3.59,5.828-6.483,12.258-8.097,19.189c-0.789,3.711-1.248,6.12-1.544,9.089c-0.283,2.874-0.337,5.782-0.167,8.631
						c-2.563-39.527,27.401-73.647,66.928-76.21C1517.276,1615.52,1551.396,1645.485,1553.96,1685.012z"></path>
            <path fill="#452d01" d="M1385.61,1614.092c-0.052-0.063-0.309-0.21-0.197-0.197l0.33,0.037l0.75,0.111l1.863,0.358
						l4.176,0.825l8.908,1.64c6.064,1.058,12.296,1.991,18.554,2.759c12.516,1.558,25.139,2.553,37.616,2.916
						c24.959,0.674,49.381-0.923,72.08-5.265c22.719-4.258,43.745-10.973,62.229-20.127c18.638-8.87,34.505-20.449,48.528-33.086
						l38.525-34.719c58.653-52.858,149.05-48.16,201.908,10.492c52.858,58.652,48.161,149.05-10.492,201.907
						c-29.92,26.964-68.562,38.919-105.807,36.406c-24.972-1.768-46.562-1.052-67.428-1c-5.215,0-10.198,0.402-15.314,0.264
						l-14.882,0.409l-14.549,0.337c-4.775,0.237-9.486,0.48-14.217,0.486l-54.699,2.205c-17.891,0.325-35.454-0.115-52.818-1.138
						c-34.733-1.983-68.386-6.351-101.87-11.536c-16.727-2.729-33.443-5.511-50.337-8.693l-25.73-4.728
						c-4.353-0.851-8.706-1.831-13.307-2.636l-6.973-1.427l-3.719-0.819l-2.053-0.472c-0.667-0.153-1.37-0.318-2.669-0.771
						c-37.152-17.01-53.48-60.917-36.47-98.069C1304.551,1613.411,1348.458,1597.083,1385.61,1614.092z"></path>
            <path fill="#311b00" d="M1590.78,1973.103c0.231-2.445,0.268-4.952,0.102-7.439c-0.177-2.573-0.505-4.66-1.105-7.913
						c-1.24-6.072-3.63-11.751-6.633-16.956c-6.715-10.788-13.604-15.724-18.501-18.76l-3.032-1.735
						c-0.857-0.46-1.735-0.881-2.63-1.26c-1.074-0.426-1.444-0.615-1.916-0.826c-0.482-0.21-0.974-0.401-1.471-0.573
						c-1.244-0.378-1.465-0.525-1.919-0.692c-0.378-0.159-1.088-0.284-0.978-0.359c-0.864-0.535,3.279-0.573,7.597-1.151
						c9.124-1.024,20.926-2.913,32.739-5.03c23.956-4.322,49.335-9.546,74.904-14.653c51.275-10.309,103.886-20.344,157.373-28.343
						c106.982-15.906,218.046-25.031,333.242-15.691l43.378,3.517c62.042,5.03,108.259,59.403,103.229,121.445
						c-5.03,62.042-59.404,108.259-121.445,103.229c-20.515-1.663-39.685-9.012-55.458-19.959
						c-5.321-3.719-10.693-7.338-16.247-10.317l-8.326-4.663c-2.81-1.439-5.647-2.719-8.485-4.09
						c-11.356-5.487-22.99-10.308-34.842-14.236c-23.677-8.126-48.117-13.679-72.839-17.284
						c-24.742-3.567-49.768-5.044-74.888-5.379c-25.135-0.627-50.379-0.046-75.695,1.061c-25.31,1.182-50.676,3.202-76.082,5.857
						c-25.363,3.13-50.849,6.095-76.461,10.073c-25.643,4.152-51.345,8.24-78.361,12.931l-20.895,3.099
						c-7.221,1.081-14.648,2.08-22.914,2.765c-8.441,0.575-17.082,1.22-30.549-0.111c-1.489-0.119-3.717-0.515-5.657-0.857
						c-2.008-0.37-3.814-0.67-6.543-1.438l-3.748-1.074c-1.236-0.375-2.383-0.713-4.156-1.424c-1.614-0.63-3.219-1.302-4.805-2.014
						c-1.681-0.782-2.876-1.257-5.167-2.585c-7.57-4.391-17.188-10.913-25.649-24.203c-4.098-6.342-6.984-13.482-8.832-21.024
						c-0.996-3.97-1.322-6.864-1.64-10.226c-0.283-3.281-0.364-6.593-0.251-9.855c2.249-34.671,32.177-60.955,66.848-58.706
						C1566.745,1908.504,1593.028,1938.432,1590.78,1973.103z"></path>
            <path fill="#58431b" d="M1553.96,1942.061c0.224,3.655,0.227,7.381-0.002,11.085c-0.267,3.796-0.555,7.065-1.584,11.589
						c-1.908,8.589-5.029,16.774-9.535,24.111c-1.113,1.856-2.295,3.671-3.535,5.43c-1.252,1.784-2.575,3.513-3.66,4.754
						c-2.318,2.727-4.823,5.347-7.461,7.797c-1.287,1.195-2.739,2.474-3.974,3.476l-3.227,2.445
						c-2.189,1.59-4.452,3.096-6.762,4.503c-2.593,1.588-3.893,2.199-5.771,3.164c-1.767,0.884-3.561,1.724-5.371,2.515
						c-2,0.884-3.258,1.342-4.625,1.844l-4.158,1.446c-3.057,1.023-5.019,1.515-7.231,2.087c-2.13,0.541-4.621,1.14-6.223,1.43
						c-14.72,2.819-23.955,3.136-32.915,3.605c-17.4,0.649-31.656,0.238-45.833-0.196c-27.972-0.996-54.128-2.581-80.105-3.953
						c-51.769-2.822-102.183-4.995-152.018-5.167c-49.783-0.194-98.846,1.459-146.737,5.956
						c-47.863,4.477-94.528,11.686-138.973,22.226l-41.043,9.734c-68.717,16.297-137.636-26.199-153.933-94.917
						c-16.297-68.718,26.199-137.637,94.917-153.934c22.239-5.274,45.027-4.213,65.517,1.724
						c30.804,9.04,59.93,14.936,88.406,20.332c28.465,5.3,56.19,9.701,83.597,13.276c27.387,3.666,54.461,6.374,81.366,9.179
						c26.89,3.083,53.599,6.087,80.135,9.519c53.061,6.611,105.63,13.893,157.525,19.319c25.892,2.461,51.682,5.342,76.164,5.916
						c6.061,0.177,12.019,0.404,17.697,0.307c5.627-0.198,11.04-0.517,15.515-1.062c2.212-0.272,4.21-0.603,5.555-0.981
						c0.646-0.173,1.346-0.379,1.438-0.635c0.065-0.115,0.37-0.211,0.233-0.312c-0.158-0.099-0.318-0.179-0.478-0.238
						c0.03-0.069-0.828-0.075-1.341-0.045c-0.594,0.04-0.943,0.057-2.416,0.34c-0.601,0.122-1.199,0.266-1.791,0.432l-2.297,0.721
						c-1.05,0.359-2.088,0.766-3.105,1.217c-1.138,0.511-1.662,0.778-3.577,1.761c-5.722,3.18-13.751,8.499-21.714,20.576
						c-3.59,5.828-6.483,12.257-8.097,19.189c-0.789,3.711-1.248,6.12-1.544,9.089c-0.283,2.873-0.337,5.781-0.167,8.631
						c-2.563-39.527,27.401-73.647,66.928-76.21C1517.276,1872.57,1551.396,1902.534,1553.96,1942.061z"></path>
            <path fill="#4b3409" d="M1502.543,1107.426l0.968-7.476l0.971-6.654c0.669-4.395,1.385-8.699,2.167-12.98
						c1.528-8.578,3.275-17.03,5.189-25.449c3.835-16.827,8.358-33.481,13.613-49.999c10.56-33,23.816-65.573,40.846-97.025
						c8.451-15.743,17.781-31.232,28.236-46.225c10.352-15.04,21.674-29.701,34.193-43.621c24.707-28.093,54.27-53.165,87.11-74.059
						l31.146-19.817c37.075-23.59,86.254-12.657,109.844,24.419c23.59,37.076,12.657,86.255-24.418,109.845
						c-14.813,9.425-31.564,13.333-47.837,12.271c-3.635-0.235-7.268-0.304-10.812-0.102l-5.403,0.242
						c-1.738,0.223-3.427,0.548-5.164,0.823c-3.413,0.637-7.062,1.021-10.401,1.948l-10.053,3.001
						c-13.332,4.401-25.945,10.919-37.435,19.152c-11.624,8.078-22.14,17.836-31.637,28.597
						c-9.649,10.624-18.942,21.851-27.221,33.904c-8.133,12.132-15.853,24.685-22.721,37.783
						c-6.486,13.274-12.736,26.754-17.827,40.718c-4.959,14.002-9.495,28.192-12.603,42.688c-1.726,7.188-3.045,14.472-4.037,21.709
						c-0.542,3.608-1.042,7.21-1.287,10.77l-0.389,5.262c-0.101,1.577-0.165,3.671-0.019,4.473
						c4.347,23.969-11.559,46.924-35.527,51.272c-23.969,4.347-46.924-11.559-51.272-35.528c-0.82-4.521-0.92-9.005-0.38-13.336
						L1502.543,1107.426z"></path>
            <path fill="#452d01" d="M1338.851,1061.11c0.256-0.01,0.166-0.139,0.689-0.033l1.482,0.287l3.114,0.603
						c2.268,0.406,4.358,0.878,6.753,1.234c4.612,0.816,9.315,1.499,14.089,2.076c9.483,1.227,19.084,1.861,28.543,2.224
						c18.964,0.556,37.463-0.906,54.697-4.104c17.34-2.931,33.143-8.504,47.216-15.319l10.309-5.243
						c3.17-2.178,6.302-4.27,9.412-6.276c1.542-1.031,3.135-1.925,4.622-3.006l4.221-3.617c2.803-2.365,5.586-4.636,8.367-6.817
						l38.056-29.849c46.919-36.801,114.788-28.599,151.59,18.321c36.801,46.919,28.599,114.789-18.32,151.59
						c-22.666,17.778-50.483,25.028-77.062,22.51c-4.823-0.468-9.467-0.816-13.875-0.877c-4.466-0.169-8.827-0.307-13.019-0.259
						c-4.183,0.073-8.328,0.066-12.302,0.292l-12.072-0.105c-7.914-0.02-15.488,0.299-22.877,0.698
						c-7.466,0.01-14.764,0.085-21.874,0.453c-3.586,0.04-7.043,0.6-10.565,0.618c-3.531-0.068-6.99,0.103-10.443,0.25
						c-6.926,0.044-13.716,1.044-20.499,0.919c-6.78-0.056-13.518-0.149-20.205-0.025c-6.687,0.048-13.289-0.783-19.891-0.908
						c-26.342-1.599-51.945-4.672-77.363-8.654c-12.676-2.176-25.397-4.151-38.256-6.51l-19.512-3.682
						c-3.266-0.568-6.677-1.462-10.116-2c-1.676-0.281-3.508-0.687-5.35-1.107l-2.766-0.586c-0.905-0.165-2.397-0.621-3.569-0.933
						c-27.358-7.281-43.634-35.361-36.354-62.719c5.92-22.244,25.59-37.162,47.442-38.048L1338.851,1061.11z"></path>
            <path fill="#311b00" d="M1925.507,2435.01c-87.572,0-309.826-13.074-421.071-138.827
						c-38.497-43.518-34.429-110.012,9.094-148.514c43.517-38.497,110.006-34.434,148.514,9.094
						c24.438,27.626,82.623,49.645,159.634,60.416c68.06,9.521,126.434,6.964,126.999,6.936
						c58.064-2.906,107.432,41.791,110.332,99.827c2.901,58.036-41.791,107.432-99.827,110.332
						C1953.969,2434.534,1942.173,2435.01,1925.507,2435.01z"></path>
            <path fill="#58431b" d="M1606.709,2527.824c-29.547,0-58.269-15.354-74.055-42.809
						c-11.364-19.766-111.484-196.338-126.694-307.91c-6.365-46.7,26.331-89.714,73.026-96.085
						c46.722-6.354,89.719,26.336,96.085,73.025c8.115,59.531,69.04,182.423,105.539,245.894
						c23.491,40.855,9.415,93.024-31.44,116.515C1635.763,2524.159,1621.139,2527.824,1606.709,2527.824z"></path>
            <path fill="#58431b" d="M1784.819,2216.67c-40.6,0-87.196-6.271-140.25-18.803
						c-76.07-17.973-139.243-42.859-141.894-43.911c-43.817-17.364-65.26-66.953-47.901-110.77
						c17.353-43.8,66.909-65.249,110.709-47.924l0,0c112.076,44.198,230.069,60.738,256.793,45.461
						c40.911-23.364,93.046-9.166,116.427,31.761c23.38,40.916,9.161,93.046-31.761,116.427
						C1874.539,2207.426,1834.093,2216.67,1784.819,2216.67z"></path>
            <path fill="#452d01" d="M1393.645,2214.611c-0.262,0.19-0.833,0.794-0.829,0.657l-0.131-0.229
						c-0.098-0.135-0.187-0.273-0.125-0.632c0.067-0.641,0.028-1.084,0.185-1.867c0.227-1.403,0.491-2.864,0.827-4.489
						c0.581-3.16,1.416-6.445,2.188-9.812l4.541-20.6c2.764-13.947,5.445-27.766,7.087-41.482
						c1.762-13.666,3.12-26.991,3.353-40.045c0.603-12.937,0.554-25.492-0.338-37.608c-0.894-12.078-2.074-23.638-4.057-34.786
						l-6.983-32.079c-4.602-20.794-9.444-40.249-10.936-63.314l-10.005-154.578c-6.394-98.801,68.516-184.079,167.317-190.474
						c98.801-6.394,184.079,68.516,190.473,167.317c1.163,17.976-0.601,36.306-4.475,52.993
						c-3.667,15.445-5.625,29.674-7.755,43.741c-0.982,7.006-2.078,13.943-2.767,20.685c-0.329,3.364-0.852,6.766-1.333,10.147
						l-1.241,10.026c-3,26.501-6.041,51.924-8.349,76.599c-2.533,24.712-4.84,48.765-7.636,72.542
						c-1.864,11.824-3.527,23.626-5.679,35.243c-1.851,11.697-4.788,23.101-7.035,34.588
						c-10.611,45.594-24.373,89.303-40.528,131.967c-8.193,21.307-16.726,42.467-26.109,63.716
						c-2.232,5.363-4.72,10.66-7.089,16.053c-2.366,5.441-4.725,10.861-7.347,16.351l-8.019,16.807
						c-1.349,2.865-2.848,5.857-4.43,8.907l-2.534,4.831c-0.379,0.773-0.93,1.75-1.492,2.734l-0.827,1.454
						c-0.228,0.425-1.042,1.581-1.543,2.332c-43.546,54.229-122.807,62.889-177.036,19.343
						C1358.759,2348.101,1350.099,2268.84,1393.645,2214.611z"></path>
            <path fill="#452d01" d="m1482.325 1970.254-13.46 5.602c-3.955 1.643-7.842 3.038-11.721 4.375-7.755 2.679-15.476 5.139-23.247 7.316-15.526 4.58-31.346 7.628-47.412 9.933-16.066 2.301-32.405 3.71-48.982 4.165-16.556.217-33.302-.621-50.159-2.425-16.837-2.008-33.673-5.298-50.471-9.469-16.772-4.329-33.306-10.054-49.396-17.025-32-14.222-61.795-34.222-85.712-59.168l-50.753-52.937c-38.223-39.866-36.889-103.169 2.977-141.392 39.866-38.222 103.169-36.889 141.391 2.978 14.846 15.484 23.713 34.486 26.685 54.199.466 3.075 1.085 6.08 1.926 8.897.776 2.895 1.608 5.827 2.809 8.303 2.158 5.292 4.604 10.549 7.699 15.046 5.88 9.507 13.455 17.377 21.853 24.243 17.074 13.347 37.667 21.533 59.046 27.371 10.811 2.51 21.851 4.53 33.075 5.739 11.25.73 22.625 1.178 33.985.342 11.336-.968 22.682-2.411 33.611-5.28 5.495-1.213 10.848-2.917 15.97-4.802 2.566-.912 5.086-1.848 7.398-2.982 1.192-.542 2.286-1.087 3.332-1.626.569-.271.944-.519 1.412-.812.258-.148.387-.268.51-.385.166-.127.349-.264-.145-.19 33.132-10.433 68.448 7.969 78.881 41.101C1533.859 1924.505 1515.457 1959.821 1482.325 1970.254zM1469.21 1694.845l-13.459 5.602c-3.955 1.643-7.842 3.039-11.721 4.375-7.755 2.679-15.476 5.139-23.247 7.316-15.526 4.58-31.346 7.628-47.412 9.932-16.066 2.301-32.405 3.711-48.982 4.166-16.557.217-33.302-.622-50.159-2.425-16.837-2.008-33.674-5.298-50.472-9.469-16.772-4.329-33.305-10.054-49.396-17.025-31.999-14.222-61.795-34.222-85.711-59.168l-50.753-52.937c-38.223-39.866-36.889-103.169 2.977-141.391 39.866-38.222 103.169-36.889 141.392 2.978 14.845 15.484 23.713 34.486 26.684 54.199.467 3.075 1.085 6.08 1.926 8.897.776 2.895 1.608 5.827 2.809 8.303 2.158 5.292 4.604 10.549 7.699 15.046 5.879 9.507 13.454 17.377 21.853 24.244 17.073 13.346 37.667 21.533 59.045 27.37 10.811 2.51 21.851 4.53 33.075 5.739 11.25.73 22.626 1.178 33.985.343 11.337-.968 22.682-2.411 33.611-5.28 5.495-1.213 10.848-2.917 15.97-4.802 2.565-.912 5.085-1.848 7.398-2.981 1.192-.542 2.286-1.087 3.332-1.626.569-.271.944-.519 1.412-.812.258-.148.387-.269.51-.385.166-.127.349-.264-.145-.19 33.132-10.433 68.449 7.969 78.881 41.101C1520.744 1649.095 1502.342 1684.412 1469.21 1694.845z"></path>
            <path fill="#452d01" d="M1419.374,2190.582l-13.46,5.602c-3.955,1.643-7.842,3.039-11.721,4.375
						c-7.756,2.679-15.476,5.139-23.247,7.316c-15.526,4.579-31.346,7.628-47.412,9.932c-16.066,2.301-32.406,3.71-48.982,4.166
						c-16.556,0.217-33.302-0.622-50.159-2.425c-16.837-2.008-33.673-5.298-50.471-9.469c-16.772-4.329-33.305-10.054-49.396-17.025
						c-31.999-14.223-61.795-34.222-85.712-59.168l-50.753-52.937c-38.222-39.867-36.889-103.17,2.977-141.392
						c39.866-38.222,103.169-36.889,141.391,2.977c14.846,15.484,23.714,34.487,26.684,54.2c0.467,3.074,1.085,6.079,1.926,8.897
						c0.776,2.894,1.608,5.827,2.809,8.303c2.158,5.292,4.604,10.549,7.699,15.046c5.88,9.507,13.455,17.376,21.853,24.243
						c17.074,13.347,37.667,21.533,59.046,27.37c10.811,2.51,21.851,4.53,33.075,5.74c11.249,0.729,22.625,1.178,33.985,0.342
						c11.336-0.969,22.682-2.411,33.611-5.28c5.495-1.213,10.848-2.917,15.97-4.802c2.566-0.912,5.086-1.848,7.398-2.982
						c1.192-0.542,2.286-1.086,3.332-1.626c0.568-0.271,0.944-0.519,1.412-0.813c0.258-0.148,0.387-0.268,0.51-0.385
						c0.166-0.127,0.349-0.264-0.145-0.19c33.132-10.433,68.449,7.969,78.881,41.101
						C1470.908,2144.833,1452.506,2180.149,1419.374,2190.582z"></path>
            <path fill="#311b00" d="M1367.19,2114.139l-5.77,7.825l-4.913,6.565c-3.177,4.272-6.498,8.387-9.781,12.227
						c-6.558,8.001-13.322,15.389-20.124,22.944c-6.941,7.267-13.81,14.687-21.13,21.573c-7.393,6.729-14.653,13.774-22.32,20.26
						c-7.677,6.468-15.42,12.942-23.413,19.089l-24.383,18.061l-25.578,16.552c-8.505,5.633-17.614,10.267-26.472,15.427
						c-4.455,2.537-8.955,5-13.472,7.44l-13.926,6.621c-9.352,4.301-18.586,8.979-28.162,12.904
						c-19.236,7.671-38.649,15.275-58.884,20.488c-40.082,11.781-82.267,16.326-123.896,15.197l-65.353-1.773
						c-61.567-1.671-110.123-52.935-108.453-114.502c1.67-61.567,52.934-110.123,114.501-108.452
						c18.712,0.507,36.655,5.866,51.919,14.433c28.467,16.117,59.735,22.269,89.983,20.119
						c30.483-1.499,59.959-10.589,88.619-21.514l10.673-4.383c3.571-1.438,7.161-2.853,10.549-4.705l20.647-10.469l19.774-12.097
						c3.356-1.918,6.423-4.292,9.651-6.407c3.217-2.137,6.375-4.362,9.458-6.687c6.222-4.573,12.038-9.643,18.078-14.396
						c3.047-2.351,5.777-5.035,8.56-7.674c2.755-2.653,5.611-5.221,8.278-7.917l7.886-8.144c2.619-2.769,4.86-5.665,7.276-8.476
						c2.46-2.828,4.657-5.607,6.652-8.513c1.061-1.45,2.078-2.872,2.849-4.147c0.852-1.275,1.868-2.925,1.6-3.14
						c26.419-30.121,72.253-33.123,102.374-6.704C1390.607,2038.183,1393.609,2084.018,1367.19,2114.139z"></path>
            <path fill="#452d01" d="m1555.489 2258.428-7.733 12.359c-2.274 3.629-4.636 7.017-7.026 10.352-4.773 6.674-9.644 13.149-14.722 19.422-10.01 12.721-21.145 24.365-32.912 35.543-11.769 11.176-24.277 21.783-37.531 31.75-13.376 9.761-27.515 18.77-42.305 27.057-14.892 8.109-30.525 15.171-46.637 21.494-16.183 6.179-32.979 11.08-50.135 14.711-34.326 6.925-70.199 7.864-104.142 1.366l-72.028-13.789c-54.244-10.384-89.8-62.775-79.416-117.019 10.384-54.244 62.775-89.8 117.019-79.416 21.069 4.033 39.299 14.396 53.132 28.75 2.161 2.237 4.405 4.33 6.721 6.14 2.308 1.911 4.684 3.821 7.097 5.145 4.823 3.066 9.86 5.937 14.987 7.812 10.298 4.349 21.03 6.381 31.853 7.12 21.648 1 43.179-4.245 63.992-11.86 10.268-4.211 20.44-8.954 30.292-14.465 9.595-5.917 19.131-12.135 27.91-19.393 8.684-7.352 17.1-15.096 24.352-23.761 3.778-4.169 7.157-8.658 10.243-13.16 1.563-2.229 3.077-4.451 4.307-6.713.659-1.132 1.235-2.209 1.776-3.255.306-.55.469-.969.681-1.48.125-.271.161-.443.193-.609.062-.2.132-.417-.228-.071 20.978-27.685 60.428-33.123 88.114-12.145C1571.03 2191.293 1576.467 2230.743 1555.489 2258.428zM1618.837 1850.272c-.448-.224-.222-.238-.013-.262.165-.035.333-.067.632-.07l1.627-.056 3.695-.064 7.885-.064c5.366-.052 10.836-.205 16.326-.575 10.979-.848 21.866-1.581 32.557-3.073 10.689-1.475 21.153-3.565 31.251-6.21 10.118-2.415 19.924-5.249 29.329-8.643 9.38-3.417 18.416-7.106 27.048-11.301 8.499-4.488 16.828-8.783 24.753-13.655 16.026-9.453 30.88-19.768 47.39-29.889l46.558-28.544c43.067-26.403 99.384-12.895 125.787 30.172 26.403 43.068 12.895 99.385-30.172 125.788-6.865 4.208-14.511 7.512-21.874 9.735-36.262 10.721-67.575 22.508-98.814 32.568-15.552 5.073-30.882 9.859-46.234 14.188-15.466 3.934-30.908 7.296-46.39 9.891-15.451 2.688-30.962 4.339-46.412 5.328-15.426 1.46-30.853 1.692-46.249 1.702-15.42.156-30.782-.717-46.358-1.579-7.767-.593-15.604-1.196-23.604-1.939l-12.208-1.329-6.405-.811-3.432-.5-1.904-.301c-.637-.105-1.258-.201-2.552-.523-33.132-10.433-51.534-45.749-41.101-78.881C1550.388 1858.241 1585.705 1839.839 1618.837 1850.272z"></path>
            <path fill="#7e6c46" d="M1634.658 1866.74h-162.715c-83.244 0-150.727-67.483-150.727-150.727v-18.089c0-83.245 67.483-150.727 150.727-150.727h162.715c83.244 0 150.727 67.483 150.727 150.727v18.089C1785.385 1799.258 1717.902 1866.74 1634.658 1866.74zM1632.087 2511.023h-104.383c-56.379 0-102.083-45.704-102.083-102.083v-8.245c0-56.379 45.704-102.083 102.083-102.083h104.383c56.379 0 102.083 45.704 102.083 102.083v8.245C1734.17 2465.319 1688.466 2511.023 1632.087 2511.023z"></path>
            <path fill="#7e6546" d="M1612.141,2263.614h-210.204c-62.059,0-112.835-50.776-112.835-112.835v-74.394
						c0-62.059,50.776-112.835,112.835-112.835h210.204c62.059,0,112.835,50.776,112.835,112.835v74.394
						C1724.976,2212.838,1674.2,2263.614,1612.141,2263.614z"></path>
            <path fill="#7e6c46" d="M1409.701,1430.58l-226.854-24.37c-56.795-6.101-98.272-57.562-92.17-114.357l4.95-46.076
						c6.101-56.795,57.562-98.271,114.357-92.17l226.854,24.37c56.795,6.101,98.272,57.562,92.17,114.357l-4.95,46.076
						C1517.956,1395.205,1466.496,1436.682,1409.701,1430.58z"></path>
            <path fill="#7e6546" d="M1624.786,1130.312h-240.364c-53.765,0-97.755-43.99-97.755-97.755v-29.275
						c0-53.765,43.99-97.755,97.755-97.755h240.364c53.765,0,97.755,43.99,97.755,97.755v29.275
						C1722.541,1086.323,1678.552,1130.312,1624.786,1130.312z"></path>
            <path fill="#7e6c46" d="M1676.652,1475.366l209.002-22.452c61.704-6.629,106.766-62.537,100.137-124.242l-7.946-73.969
						c-6.629-61.704-62.537-106.766-124.242-100.137l-209.002,22.452c-61.704,6.629-106.766,62.537-100.137,124.241l7.946,73.969
						C1559.04,1436.933,1614.948,1481.994,1676.652,1475.366z"></path>
            <g>
              <path fill="#7e6c46" d="M1970.44,1927.656c48.659-28.093,88.568-5.351,88.727,50.48
							c0.158,55.914-45.52,166.634-94.179,194.727l-123.418,32.691c-48.587,28.052-88.496,5.309-88.655-50.604
							c-0.158-55.83,39.491-124.506,88.079-152.558L1970.44,1927.656z"></path>
            </g>
            <g>
              <path fill="#7e6c46" d="M2026.929,2239.302c49.86-10.867,78.109,19.834,62.825,68.183
							c-15.307,48.422-85.411,131.603-135.271,142.469l-115.813-5.804c-49.787,10.851-78.035-19.85-62.728-68.271
							c15.284-48.349,68.559-96.818,118.346-107.668L2026.929,2239.302z"></path>
            </g>
            <g>
              <path fill="#7e6546" d="M1098.564,2239.302c-49.86-10.867-78.109,19.834-62.825,68.183
							c15.307,48.422,85.411,131.603,135.271,142.469l115.813-5.804c49.787,10.851,78.035-19.85,62.728-68.271
							c-15.284-48.349-68.559-96.818-118.346-107.668L1098.564,2239.302z"></path>
            </g>
            <g>
              <path fill="#7e6c46" d="M2050.646,1382.174c51.359-29.652,93.484-5.648,93.652,53.281
							c0.167,59.017-48.047,175.883-99.406,205.536l-130.268,34.506c-51.284,29.609-93.408,5.604-93.575-53.413
							c-0.167-58.929,41.683-131.417,92.967-161.026L2050.646,1382.174z"></path>
            </g>
            <g>
              <path fill="#7e6546" d="M1879.107,1939.335c-46.825,27.034-85.23,5.149-85.383-48.577
							c-0.152-53.806,43.804-160.354,90.629-187.388l118.767-31.459c46.756-26.995,85.161-5.109,85.313,48.698
							c0.152,53.726-38.003,119.814-84.759,146.808L1879.107,1939.335z"></path>
            </g>
            <g>
              <path fill="#7e6c46" d="M2302.621,1836.507c29.193-8.345,53.932-1.312,62.804,21.361
							c13.224,33.683-8.791,170.463-54.657,205.161l-82.506,47.593c-15.066,11.417-62.422,19.278-76.692,23.356
							c-29.187,8.341-66.368-34.574-75.251-57.197c-13.139-33.772,13.551-89.722,59.504-124.509l122.145-92.546
							C2273.021,1848.336,2288.356,1840.585,2302.621,1836.507z"></path>
            </g>
            <g>
              <path fill="#7e6c46" d="M2313.103,1597.316c23.454-6.704,43.328-1.054,50.457,17.162
							c10.624,27.061-7.063,136.948-43.912,164.825l-66.285,38.236c-12.104,9.172-50.149,15.488-61.614,18.765
							c-23.448,6.701-53.32-27.777-60.456-45.952c-10.556-27.132,10.887-72.082,47.804-100.03l98.13-74.351
							C2289.323,1606.819,2301.643,1600.592,2313.103,1597.316z"></path>
            </g>
            <g>
              <path fill="#7e6c46" d="M2198.011,1633.639c-29.999,8.953-55.589,1.999-65.009-21.272
							c-14.038-34.57,7.023-175.858,53.896-212.183l84.497-50.058c15.397-11.952,64.128-20.624,78.793-25
							c29.992-8.949,68.842,34.853,78.271,58.071c13.952,34.662-12.897,92.668-59.859,129.086l-124.827,96.881
							C2228.388,1621.088,2212.67,1629.263,2198.011,1633.639z"></path>
            </g>
            <g>
              <path fill="#7e6546" d="M2212.578,1091.329c25.218-7.526,46.73-1.68,54.648,17.882
							c11.801,29.061-5.903,147.832-45.307,178.367l-71.031,42.08c-12.944,10.047-53.908,17.338-66.236,21.016
							c-25.213,7.523-57.871-29.298-65.797-48.816c-11.728-29.138-22.475-115.228,17.003-145.842l107.222-42.889
							C2156.015,1103.104,2200.255,1095.007,2212.578,1091.329z"></path>
            </g>
            <g>
              <path fill="#7e6c46" d="M2084.405,874.554c26.293,1.133,44.711,13.693,45.797,34.769
							c1.649,31.322-53.92,137.774-101.142,153.746l-80.886,16.54c-15.517,5.262-56.614-1.244-69.467-1.799
							c-26.286-1.135-45.109-46.611-46.217-67.648c-1.555-31.372,35.719-70.072,83.037-86.093l125.796-42.651
							C2056.823,876.174,2071.557,874,2084.405,874.554z"></path>
            </g>
            <g>
              <path fill="#7e6c46" d="M1340.67,616.181c19.272,17.921,17.512,55.695,4.664,72.437
							c-19.068,24.904-132.434,89.096-178.73,70.61l-72.207-41.981c-15.222-6.064-40.334-54.834-49.754-63.595
							c-19.266-17.919-4.083-64.736,8.723-81.463c19.171-24.881,80.271-46.412,126.672-27.903l123.396,49.163
							C1318.63,599.519,1331.253,607.424,1340.67,616.181z"></path>
            </g>
            <g>
              <path fill="#7e6c46" d="M1797.981,391.898c28.807,1.149,57.18,49.153,58.444,72.237
							c1.918,34.306,1.075,106.137-57.347,146.191l-80.022,25.179c-16.98,5.819-62.023-1.163-76.104-1.725
							c-28.8-1.151-49.579-50.902-50.868-73.943c-1.814-34.361,28.031-80.251,81.377-117.592l77.35-42.676
							C1767.772,393.771,1783.905,391.337,1797.981,391.898z"></path>
            </g>
            <g>
              <path fill="#7e6546" d="M1238.326,150.084c-32.535-2.421-70.62,47.893-75.017,73.683
							c-6.577,38.323-14.886,119.191,45.635,171.751l86.723,38.621c18.34,8.731,69.881,6.686,85.785,7.868
							c32.527,2.418,62.301-50.839,66.719-76.578c6.468-38.398-21.173-93.838-76.336-142.695l-81.464-57.948
							C1272.048,156.083,1254.224,151.268,1238.326,150.084z"></path>
            </g>
            <g>
              <path fill="#7e6546" d="M800.808,2102.464c-27.378,6.17-46.094,57.124-43.241,79.448
							c4.202,33.183,17.652,101.808,80.636,129.873l81.047,10.022c17.281,2.583,59.177-12.03,72.56-15.047
							c27.371-6.17,38.51-57.46,35.688-79.747c-4.311-33.217-40.963-71.901-98.609-98.263l-81.568-27.245
							C830.06,2098.94,814.186,2099.449,800.808,2102.464z"></path>
            </g>
            <g>
              <path fill="#7e6c46" d="M1043.671,1922.786c-48.659-28.093-88.568-5.351-88.727,50.48
							c-0.158,55.914,45.52,166.634,94.179,194.727l123.418,32.691c48.587,28.052,88.496,5.309,88.654-50.605
							c0.158-55.83-39.491-124.506-88.078-152.558L1043.671,1922.786z"></path>
            </g>
            <g>
              <path fill="#7e6546" d="M1037.272,1379.927c-51.359-29.652-93.484-5.648-93.651,53.281
							c-0.168,59.017,48.046,175.883,99.406,205.535l130.268,34.506c51.284,29.609,93.408,5.604,93.575-53.413
							c0.167-58.929-41.683-131.417-92.967-161.026L1037.272,1379.927z"></path>
            </g>
            <g>
              <path fill="#7e6c46" d="M1164.221,1947.58c46.825,27.034,85.23,5.149,85.383-48.577
							c0.152-53.806-43.805-160.354-90.629-187.389l-118.767-31.459c-46.756-26.995-85.161-5.109-85.313,48.697
							c-0.152,53.726,38.003,119.814,84.759,146.809L1164.221,1947.58z"></path>
            </g>
            <g>
              <path fill="#7e6c46" d="M852.604,2091.902c26.707,4.928,48.13-3.453,54.087-24.401
							c8.888-31.123,2.119-200.812-41.691-227.776l-77.537-35.305c-14.393-8.874-57.23-11.816-70.285-14.224
							c-26.701-4.926-80.681,86.265-86.651,107.168c-8.805,31.194,19.753,78.722,63.648,105.758l116.682,71.933
							C825.236,2083.906,839.553,2089.494,852.604,2091.902z"></path>
            </g>
            <g>
              <path fill="#7e6c46" d="M832.202,1610.408c29.999,8.953,55.589,1.999,65.009-21.272
							c14.038-34.57-7.023-175.858-53.897-212.183l-84.497-50.058c-15.397-11.952-64.129-20.625-78.793-25
							c-29.992-8.949-68.842,34.853-78.271,58.071c-13.952,34.662,12.897,92.669,59.859,129.086l124.827,96.881
							C801.826,1597.857,817.544,1606.033,832.202,1610.408z"></path>
            </g>
            <g>
              <path fill="#7e6c46" d="M842.443,1037.53c-28.59-8.533-52.979-1.905-61.956,20.273
							c-13.379,32.947,6.693,167.599,51.365,202.218l80.529,47.707c14.674,11.39,61.117,19.656,75.092,23.826
							c28.584,8.529,65.609-33.216,74.595-55.344c13.296-33.035-12.291-88.316-57.048-123.023l-118.964-92.331
							C871.393,1049.491,856.414,1041.7,842.443,1037.53z"></path>
            </g>
            <g>
              <path fill="#7e6546" d="M661.694,1571.434c-23.866-2.811-42.299,5.827-46.351,24.667
							c-6.052,27.995,28.524,132.054,68.763,153.334l70.503,26.699c13.221,7.005,51.215,7.131,62.882,8.504
							c23.861,2.808,47.457-35.442,51.522-54.244c5.974-28.053-21.985-68.372-62.303-89.711l-107.18-56.783
							C686.321,1576.916,673.356,1572.808,661.694,1571.434z"></path>
            </g>
            <g>
              <path fill="#7e6c46" d="M947.88,833.429c-29.804-1.389-51.875,10.923-55.241,34.611
							c-5.041,35.201,46.901,161.042,98.602,183.87l89.654,26.886c16.988,7.517,64.053,4.342,78.622,5.02
							c29.797,1.386,55.666-48.053,59.053-71.695c4.94-35.266-33.22-82.748-85.024-105.642L995.83,845.551
							C978.859,838.058,962.443,834.108,947.88,833.429z"></path>
            </g>
          </g>
        </g>
      </g>
    </g>
  </switch>
</svg>
